<?xml version="1.0" encoding="UTF-8"?>
<svg width="1440" height="800" viewBox="0 0 1440 800" fill="none" xmlns="http://www.w3.org/2000/svg">
  <!-- Background -->
  <rect width="1440" height="800" fill="#0F172A"/>
  
  <!-- Grid Pattern -->
  <path d="M0 80 H1440 M0 160 H1440 M0 240 H1440 M0 320 H1440 M0 400 H1440 M0 480 H1440 M0 560 H1440 M0 640 H1440 M0 720 H1440" 
        stroke="#1E293B" stroke-width="0.5" stroke-opacity="0.3"/>
  <path d="M80 0 V800 M160 0 V800 M240 0 V800 M320 0 V800 M400 0 V800 M480 0 V800 M560 0 V800 M640 0 V800 M720 0 V800" 
        stroke="#1E293B" stroke-width="0.5" stroke-opacity="0.3"/>
  
  <!-- Decorative Elements -->
  <circle cx="720" cy="400" r="150" stroke="#334155" stroke-width="0.5" stroke-opacity="0.5" fill="none"/>
  <circle cx="720" cy="400" r="100" stroke="#334155" stroke-width="0.5" stroke-opacity="0.5" fill="none"/>
  
  <!-- Animated Dots -->
  <g fill="#3B82F6" fill-opacity="0.6">
    <circle cx="200" cy="200" r="2"/>
    <circle cx="1200" cy="400" r="2"/>
    <circle cx="800" cy="600" r="2"/>
    <circle cx="400" cy="300" r="2"/>
    <circle cx="1000" cy="200" r="2"/>
    <circle cx="600" cy="700" r="2"/>
  </g>
  
  <!-- Tech Icons -->
  <g stroke="#64748B" stroke-width="1.5" fill="none">
    <!-- Code Symbol -->
    <path d="M300 300 L250 350 L300 400" />
    <path d="M400 300 L450 350 L400 400" />
    
    <!-- Server Stack -->
    <rect x="900" y="250" width="120" height="30" rx="2"/>
    <rect x="900" y="290" width="120" height="30" rx="2"/>
    <rect x="900" y="330" width="120" height="30" rx="2"/>
    
    <!-- Graph -->
    <path d="M1100 500 L1150 450 L1200 480 L1250 420" stroke="#3B82F6" stroke-width="2"/>
  </g>
  
  <!-- Connection Lines -->
  <g stroke="#1E293B" stroke-width="0.5" stroke-opacity="0.4">
    <path d="M200 200 L400 300"/>
    <path d="M1200 400 L1000 200"/>
    <path d="M800 600 L600 700"/>
  </g>
</svg> 